<svg xmlns="http://www.w3.org/2000/svg" width="326" height="527" fill="none"><path fill="#F3F5F7" fill-rule="evenodd" d="M235.023 335.255L163.2 401.03l-72.223-65.775L5.187 527H0l105.341-348.012 28.73 59.398-25.936 60.991 55.065 49.432 54.665-49.432-25.936-60.991 28.73-59.398L326 527h-5.187l-85.79-191.745z" clip-rule="evenodd"/><path fill="#F3F5F7" fill-rule="evenodd" d="M163.2 164.638l-17.557 45.445-27.932-61.391L163.2 0l45.089 148.692-27.931 61.391-17.158-45.445z" clip-rule="evenodd"/><path fill="#00A3D3" fill-rule="evenodd" d="M235.023 335.255L163.2 401.03l-72.223-65.775L5.187 527H0l105.341-348.012 28.73 59.398-25.936 60.991 55.065 49.432 54.665-49.432-25.936-60.991 28.73-59.398L326 527h-5.187l-85.79-191.745z" clip-rule="evenodd"/><path fill="#F3F5F7" fill-rule="evenodd" d="M163.2 164.638l-17.557 45.445-27.932-61.391L163.2 0l45.089 148.692-27.931 61.391-17.158-45.445z" clip-rule="evenodd"/></svg>